<svg id="Layer_1" data-name="Layer 1" xmlns="http://www.w3.org/2000/svg" viewBox="0 0 301.46 345.5"><title>hxgf-bug-white</title><polygon points="70.98 343.63 72.98 344.25 175.98 18.88 173.97 18.25 70.98 343.63" style="fill:#fff;stroke:#fff;stroke-width:2px"/><polygon points="199.97 1.25 96.98 326.63 98.98 327.25 201.98 1.88 199.97 1.25" style="fill:#fff;stroke:#fff;stroke-width:2px"/><polygon id="hxgf-bug-a" points="301.46 80.44 301.46 148.25 295.81 148.25 295.81 119.5 268.98 119.5 268.98 148.25 263.33 148.25 263.33 80.44 268.98 80.44 268.98 114.22 295.81 114.22 295.81 80.44 301.46 80.44" style="fill:#fff"/><polygon id="hxgf-bug-a-2" data-name="hxgf-bug-a" points="301.46 80.44 301.46 148.25 295.81 148.25 295.81 119.5 268.98 119.5 268.98 148.25 263.33 148.25 263.33 80.44 268.98 80.44 268.98 114.22 295.81 114.22 295.81 80.44 301.46 80.44" style="fill:#fff"/><polygon id="hxgf-bug-b" points="256.23 80.44 238.68 115.37 255.03 148.25 248.86 148.25 235.13 121.41 220.91 148.25 214.2 148.25 231.75 115.59 214.2 80.44 220.64 80.44 235.22 109.73 249.88 80.44 256.23 80.44" style="fill:#fff"/><polygon id="hxgf-bug-b-2" data-name="hxgf-bug-b" points="256.23 80.44 238.68 115.37 255.03 148.25 248.86 148.25 235.13 121.41 220.91 148.25 214.2 148.25 231.75 115.59 214.2 80.44 220.64 80.44 235.22 109.73 249.88 80.44 256.23 80.44" style="fill:#fff"/><path id="hxgf-bug-c" d="M68.78,165.7H48.52V132.11H53l.63,6.93a19.13,19.13,0,0,1,6.31-6.18,15.52,15.52,0,0,1,8-2.13q10.1,0,14.91,8.64t4.82,26.68q0,18.36-4.91,26.84t-15.44,8.49q-8.08,0-12.82-5.11T49,181.61H54.7q.75,6.93,4.06,10.7a10.91,10.91,0,0,0,8.6,3.78q7.38,0,10.86-7.26t3.49-22.78q0-15.42-3.44-22.72T67.63,136a11.27,11.27,0,0,0-10.44,6.28q-3.51,6.3-3.51,18.64h15.1Z" transform="translate(-5.02 -0.75)" style="fill:#fff"/><path id="hxgf-bug-c-2" data-name="hxgf-bug-c" d="M68.78,165.7H48.52V132.11H53l.63,6.93a19.13,19.13,0,0,1,6.31-6.18,15.52,15.52,0,0,1,8-2.13q10.1,0,14.91,8.64t4.82,26.68q0,18.36-4.91,26.84t-15.44,8.49q-8.08,0-12.82-5.11T49,181.61H54.7q.75,6.93,4.06,10.7a10.91,10.91,0,0,0,8.6,3.78q7.38,0,10.86-7.26t3.49-22.78q0-15.42-3.44-22.72T67.63,136a11.27,11.27,0,0,0-10.44,6.28q-3.51,6.3-3.51,18.64h15.1Z" transform="translate(-5.02 -0.75)" style="fill:#fff"/><polygon id="hxgf-bug-d" points="31.15 131.36 31.15 199.16 0 199.16 0 193.87 25.02 193.87 25.02 169.39 2.58 169.39 2.58 164.19 25.02 164.19 25.02 131.36 31.15 131.36" style="fill:#fff"/><polygon id="hxgf-bug-d-2" data-name="hxgf-bug-d" points="31.15 131.36 31.15 199.16 0 199.16 0 193.87 25.02 193.87 25.02 169.39 2.58 169.39 2.58 164.19 25.02 164.19 25.02 131.36 31.15 131.36" style="fill:#fff"/></svg>